<?xml version="1.0" encoding="UTF-8" standalone="no"?>
<!DOCTYPE svg PUBLIC "-//W3C//DTD SVG 1.1//EN"
 "http://www.w3.org/Graphics/SVG/1.1/DTD/svg11.dtd">
<!-- Generated by graphviz version 2.38.0 (20140413.2041)
 -->
<!-- Title: g Pages: 1 -->
<svg width="428pt" height="288pt"
 viewBox="0.00 0.00 428.11 288.00" xmlns="http://www.w3.org/2000/svg" xmlns:xlink="http://www.w3.org/1999/xlink">
<g id="graph0" class="graph" transform="scale(0.972973 0.972973) rotate(0) translate(4 292)">
<title>g</title>
<polygon fill="white" stroke="none" points="-4,4 -4,-292 436,-292 436,4 -4,4"/>
<g id="clust1" class="cluster"><title>cluster_model</title>
<polygon fill="none" stroke="black" points="10.1647,-10.6175 10.1647,-277.382 320.188,-277.382 320.188,-10.6175 10.1647,-10.6175"/>
<text text-anchor="middle" x="165.176" y="-265.382" font-family="Helvetica,sans-Serif" font-size="10.00">Design Source File (*.scad)</text>
<text text-anchor="middle" x="165.176" y="-254.382" font-family="Helvetica,sans-Serif" font-size="10.00">Scope (root)</text>
</g>
<g id="clust2" class="cluster"><title>cluster_example</title>
<polygon fill="none" stroke="black" stroke-dasharray="5,2" points="221.082,-31.8525 221.082,-191.115 310.024,-191.115 310.024,-31.8525 221.082,-31.8525"/>
<text text-anchor="middle" x="265.553" y="-179.115" font-family="Helvetica,sans-Serif" font-size="10.00">Scope (B)</text>
</g>
<g id="clust3" class="cluster"><title>cluster_document</title>
<polygon fill="none" stroke="black" stroke-dasharray="5,2" points="20.3294,-21.235 20.3294,-226.949 210.918,-226.949 210.918,-21.235 20.3294,-21.235"/>
<text text-anchor="middle" x="115.624" y="-214.949" font-family="Helvetica,sans-Serif" font-size="10.00">Scope (A)</text>
</g>
<g id="clust4" class="cluster"><title>cluster_internal</title>
<polygon fill="none" stroke="black" stroke-dasharray="5,2" points="111.812,-31.8525 111.812,-191.115 200.753,-191.115 200.753,-31.8525 111.812,-31.8525"/>
<text text-anchor="middle" x="156.282" y="-179.115" font-family="Helvetica,sans-Serif" font-size="10.00">Scope (A&#45;1)</text>
</g>
<g id="clust5" class="cluster"><title>cluster_key</title>
<polygon fill="none" stroke="none" points="330.353,-28.5346 330.353,-209.032 421.835,-209.032 421.835,-28.5346 330.353,-28.5346"/>
<text text-anchor="middle" x="376.094" y="-197.032" font-family="Helvetica,sans-Serif" font-size="10.00" fill="gray">symbol</text>
<text text-anchor="middle" x="376.094" y="-186.032" font-family="Helvetica,sans-Serif" font-size="10.00" fill="gray">key</text>
</g>
<!-- n3 -->
<g id="node1" class="node"><title>n3</title>
<polygon fill="none" stroke="black" points="292.553,-149.618 238.553,-149.618 238.553,-145.618 234.553,-145.618 234.553,-141.618 238.553,-141.618 238.553,-121.618 234.553,-121.618 234.553,-117.618 238.553,-117.618 238.553,-113.618 292.553,-113.618 292.553,-149.618"/>
<polyline fill="none" stroke="black" points="238.553,-145.618 242.553,-145.618 242.553,-141.618 238.553,-141.618 "/>
<polyline fill="none" stroke="black" points="238.553,-121.618 242.553,-121.618 242.553,-117.618 238.553,-117.618 "/>
</g>
<!-- n4 -->
<g id="node2" class="node"><title>n4</title>
<polygon fill="none" stroke="black" points="286.553,-84.6175 238.553,-84.6175 238.553,-48.6175 292.553,-48.6175 292.553,-78.6175 286.553,-84.6175"/>
<polyline fill="none" stroke="black" points="286.553,-84.6175 286.553,-78.6175 "/>
<polyline fill="none" stroke="black" points="292.553,-78.6175 286.553,-78.6175 "/>
</g>
<!-- n3&#45;&#45;n4 -->
<!-- n5 -->
<g id="node3" class="node"><title>n5</title>
<polygon fill="none" stroke="black" points="91.5529,-149.618 37.5529,-149.618 37.5529,-145.618 33.5529,-145.618 33.5529,-141.618 37.5529,-141.618 37.5529,-121.618 33.5529,-121.618 33.5529,-117.618 37.5529,-117.618 37.5529,-113.618 91.5529,-113.618 91.5529,-149.618"/>
<polyline fill="none" stroke="black" points="37.5529,-145.618 41.5529,-145.618 41.5529,-141.618 37.5529,-141.618 "/>
<polyline fill="none" stroke="black" points="37.5529,-121.618 41.5529,-121.618 41.5529,-117.618 37.5529,-117.618 "/>
</g>
<!-- n6 -->
<g id="node4" class="node"><title>n6</title>
<polygon fill="none" stroke="black" points="85.5529,-84.6175 37.5529,-84.6175 37.5529,-48.6175 91.5529,-48.6175 91.5529,-78.6175 85.5529,-84.6175"/>
<polyline fill="none" stroke="black" points="85.5529,-84.6175 85.5529,-78.6175 "/>
<polyline fill="none" stroke="black" points="91.5529,-78.6175 85.5529,-78.6175 "/>
</g>
<!-- n5&#45;&#45;n6 -->
<!-- n7 -->
<g id="node5" class="node"><title>n7</title>
<polygon fill="none" stroke="black" points="183.553,-149.618 129.553,-149.618 129.553,-145.618 125.553,-145.618 125.553,-141.618 129.553,-141.618 129.553,-121.618 125.553,-121.618 125.553,-117.618 129.553,-117.618 129.553,-113.618 183.553,-113.618 183.553,-149.618"/>
<polyline fill="none" stroke="black" points="129.553,-145.618 133.553,-145.618 133.553,-141.618 129.553,-141.618 "/>
<polyline fill="none" stroke="black" points="129.553,-121.618 133.553,-121.618 133.553,-117.618 129.553,-117.618 "/>
</g>
<!-- n8 -->
<g id="node6" class="node"><title>n8</title>
<polygon fill="none" stroke="black" points="177.553,-84.6175 129.553,-84.6175 129.553,-48.6175 183.553,-48.6175 183.553,-78.6175 177.553,-84.6175"/>
<polyline fill="none" stroke="black" points="177.553,-84.6175 177.553,-78.6175 "/>
<polyline fill="none" stroke="black" points="183.553,-78.6175 177.553,-78.6175 "/>
</g>
<!-- n7&#45;&#45;n8 -->
<!-- n1 -->
<g id="node7" class="node"><title>n1</title>
<polygon fill="none" stroke="gray" points="404.553,-152.118 348.553,-152.118 348.553,-148.118 344.553,-148.118 344.553,-144.118 348.553,-144.118 348.553,-119.118 344.553,-119.118 344.553,-115.118 348.553,-115.118 348.553,-111.118 404.553,-111.118 404.553,-152.118"/>
<polyline fill="none" stroke="gray" points="348.553,-148.118 352.553,-148.118 352.553,-144.118 348.553,-144.118 "/>
<polyline fill="none" stroke="gray" points="348.553,-119.118 352.553,-119.118 352.553,-115.118 348.553,-115.118 "/>
<text text-anchor="middle" x="376.553" y="-140.118" font-family="Helvetica,sans-Serif" font-size="10.00" fill="gray">Modeling</text>
<text text-anchor="middle" x="376.553" y="-129.118" font-family="Helvetica,sans-Serif" font-size="10.00" fill="gray">Scripts</text>
<text text-anchor="middle" x="376.553" y="-118.118" font-family="Helvetica,sans-Serif" font-size="10.00" fill="gray">(*.scad)</text>
</g>
<!-- n2 -->
<g id="node8" class="node"><title>n2</title>
<polygon fill="none" stroke="gray" points="397.553,-87.1175 349.553,-87.1175 349.553,-46.1175 403.553,-46.1175 403.553,-81.1175 397.553,-87.1175"/>
<polyline fill="none" stroke="gray" points="397.553,-87.1175 397.553,-81.1175 "/>
<polyline fill="none" stroke="gray" points="403.553,-81.1175 397.553,-81.1175 "/>
<text text-anchor="middle" x="376.553" y="-75.1175" font-family="Helvetica,sans-Serif" font-size="10.00" fill="gray">Build</text>
<text text-anchor="middle" x="376.553" y="-64.1175" font-family="Helvetica,sans-Serif" font-size="10.00" fill="gray">Scripts</text>
<text text-anchor="middle" x="376.553" y="-53.1175" font-family="Helvetica,sans-Serif" font-size="10.00" fill="gray">(*.bash)</text>
</g>
<!-- n1&#45;&#45;n2 -->
</g>
</svg>
