<?xml version="1.0" encoding="UTF-8" standalone="no"?>
<!DOCTYPE svg PUBLIC "-//W3C//DTD SVG 1.1//EN"
 "http://www.w3.org/Graphics/SVG/1.1/DTD/svg11.dtd">
<!-- Generated by graphviz version 2.38.0 (20140413.2041)
 -->
<!-- Title: example Pages: 1 -->
<svg width="574pt" height="432pt"
 viewBox="0.00 0.00 573.76 432.00" xmlns="http://www.w3.org/2000/svg" xmlns:xlink="http://www.w3.org/1999/xlink">
<g id="graph0" class="graph" transform="scale(0.841285 0.841285) rotate(0) translate(4 509.5)">
<title>example</title>
<polygon fill="white" stroke="none" points="-4,4 -4,-509.5 678,-509.5 678,4 -4,4"/>
<g id="clust1" class="cluster"><title>cluster_template</title>
<polygon fill="none" stroke="black" stroke-dasharray="1,5" points="26,-142.469 26,-355.644 105,-355.644 105,-142.469 26,-142.469"/>
<text text-anchor="middle" x="65.5" y="-335.644" font-family="Helvetica,sans-Serif" font-size="20.00" fill="gray">Project</text>
</g>
<g id="clust3" class="cluster"><title>cluster_flow</title>
<polygon fill="none" stroke="black" stroke-dasharray="1,5" points="142,-139.303 142,-497.057 658.5,-497.057 658.5,-139.303 142,-139.303"/>
<text text-anchor="middle" x="400.25" y="-477.057" font-family="Helvetica,sans-Serif" font-size="20.00" fill="gray">Automated Design Flow</text>
</g>
<g id="clust4" class="cluster"><title>cluster_scope</title>
<polygon fill="none" stroke="black" stroke-dasharray="5,2" points="300,-206.843 300,-456.955 650.5,-456.955 650.5,-206.843 300,-206.843"/>
<text text-anchor="middle" x="475.25" y="-441.755" font-family="Helvetica,sans-Serif" font-size="14.00" fill="gray">Source Scope</text>
</g>
<g id="clust6" class="cluster"><title>cluster_docrepo</title>
<polygon fill="none" stroke="black" stroke-dasharray="1,5" points="8,-8.44259 8,-130.86 666,-130.86 666,-8.44259 8,-8.44259"/>
<text text-anchor="middle" x="337" y="-110.86" font-family="Helvetica,sans-Serif" font-size="20.00" fill="gray">OpenSCAD Library</text>
<text text-anchor="middle" x="337" y="-88.8601" font-family="Helvetica,sans-Serif" font-size="20.00" fill="gray">Documentation Repository</text>
</g>
<!-- a1 -->
<g id="node1" class="node"><title>a1</title>
<polygon fill="none" stroke="black" points="90,-314.997 34,-314.997 34,-278.997 96,-278.997 96,-308.997 90,-314.997"/>
<polyline fill="none" stroke="black" points="90,-314.997 90,-308.997 "/>
<polyline fill="none" stroke="black" points="96,-308.997 90,-308.997 "/>
<text text-anchor="middle" x="65" y="-300.397" font-family="Helvetica,sans-Serif" font-size="12.00">Project</text>
<text text-anchor="middle" x="65" y="-287.397" font-family="Helvetica,sans-Serif" font-size="12.00">Makefile</text>
</g>
<!-- a2 -->
<g id="node2" class="node"><title>a2</title>
<polygon fill="none" stroke="black" points="87.5,-256.497 36.5,-256.497 36.5,-209.497 93.5,-209.497 93.5,-250.497 87.5,-256.497"/>
<polyline fill="none" stroke="black" points="87.5,-256.497 87.5,-250.497 "/>
<polyline fill="none" stroke="black" points="93.5,-250.497 87.5,-250.497 "/>
<text text-anchor="middle" x="65" y="-242.897" font-family="Helvetica,sans-Serif" font-size="12.00">Source</text>
<text text-anchor="middle" x="65" y="-229.897" font-family="Helvetica,sans-Serif" font-size="12.00">Files</text>
<text text-anchor="middle" x="65" y="-216.897" font-family="Helvetica,sans-Serif" font-size="12.00">(*.scad)</text>
</g>
<!-- b -->
<g id="node4" class="node"><title>b</title>
<polygon fill="none" stroke="black" points="252,-305.997 154,-305.997 154,-269.997 252,-269.997 252,-305.997"/>
<polygon fill="none" stroke="black" points="256,-309.997 150,-309.997 150,-265.997 256,-265.997 256,-309.997"/>
<text text-anchor="middle" x="203" y="-284.897" font-family="Helvetica,sans-Serif" font-size="12.00">Script Extractor</text>
</g>
<!-- a2&#45;&gt;b -->
<g id="edge15" class="edge"><title>a2&#45;&gt;b</title>
<path fill="none" stroke="black" d="M93.5216,-244.127C107.017,-249.585 123.857,-256.395 140.214,-263.01"/>
<polygon fill="black" stroke="black" points="149.759,-266.87 138.801,-267.293 145.124,-264.995 140.489,-263.121 140.489,-263.121 140.489,-263.121 145.124,-264.995 142.176,-258.949 149.759,-266.87 149.759,-266.87"/>
</g>
<!-- g -->
<g id="node5" class="node"><title>g</title>
<polygon fill="none" stroke="black" points="248,-240.997 158,-240.997 158,-204.997 248,-204.997 248,-240.997"/>
<polygon fill="none" stroke="black" points="252,-244.997 154,-244.997 154,-200.997 252,-200.997 252,-244.997"/>
<text text-anchor="middle" x="203" y="-219.897" font-family="Helvetica,sans-Serif" font-size="12.00">Doxygen filter</text>
</g>
<!-- a2&#45;&gt;g -->
<g id="edge16" class="edge"><title>a2&#45;&gt;g</title>
<path fill="none" stroke="black" d="M93.5216,-230.973C107.99,-229.909 126.303,-228.563 143.743,-227.28"/>
<polygon fill="black" stroke="black" points="153.875,-226.535 144.232,-231.757 148.889,-226.902 143.902,-227.269 143.902,-227.269 143.902,-227.269 148.889,-226.902 143.572,-222.781 153.875,-226.535 153.875,-226.535"/>
</g>
<!-- a3 -->
<g id="node3" class="node"><title>a3</title>
<polygon fill="none" stroke="black" points="89,-187.997 35,-187.997 35,-151.997 95,-151.997 95,-181.997 89,-187.997"/>
<polyline fill="none" stroke="black" points="89,-187.997 89,-181.997 "/>
<polyline fill="none" stroke="black" points="95,-181.997 89,-181.997 "/>
<text text-anchor="middle" x="65" y="-166.897" font-family="Helvetica,sans-Serif" font-size="12.00">Doxyfile</text>
</g>
<!-- h -->
<g id="node6" class="node"><title>h</title>
<polygon fill="none" stroke="black" points="373.5,-190.997 308.5,-190.997 308.5,-154.997 373.5,-154.997 373.5,-190.997"/>
<polygon fill="none" stroke="black" points="377.5,-194.997 304.5,-194.997 304.5,-150.997 377.5,-150.997 377.5,-194.997"/>
<text text-anchor="middle" x="341" y="-169.897" font-family="Helvetica,sans-Serif" font-size="12.00">Doxygen</text>
</g>
<!-- a3&#45;&gt;h -->
<g id="edge17" class="edge"><title>a3&#45;&gt;h</title>
<path fill="none" stroke="black" d="M95.0634,-170.315C142.648,-170.836 237.545,-171.875 294.234,-172.496"/>
<polygon fill="black" stroke="black" points="304.354,-172.607 294.306,-176.997 299.355,-172.552 294.355,-172.497 294.355,-172.497 294.355,-172.497 299.355,-172.552 294.404,-167.997 304.354,-172.607 304.354,-172.607"/>
</g>
<!-- c -->
<g id="node8" class="node"><title>c</title>
<polygon fill="none" stroke="black" points="368,-334.997 308,-334.997 308,-298.997 374,-298.997 374,-328.997 368,-334.997"/>
<polyline fill="none" stroke="black" points="368,-334.997 368,-328.997 "/>
<polyline fill="none" stroke="black" points="374,-328.997 368,-328.997 "/>
<text text-anchor="middle" x="341" y="-320.397" font-family="Helvetica,sans-Serif" font-size="12.00">Modeling</text>
<text text-anchor="middle" x="341" y="-307.397" font-family="Helvetica,sans-Serif" font-size="12.00">Script</text>
</g>
<!-- b&#45;&gt;c -->
<g id="edge7" class="edge"><title>b&#45;&gt;c</title>
<path fill="none" stroke="black" d="M256.192,-299.126C269.905,-302.05 284.526,-305.168 297.652,-307.967"/>
<polygon fill="black" stroke="black" points="307.813,-310.133 297.094,-312.449 302.923,-309.091 298.033,-308.048 298.033,-308.048 298.033,-308.048 302.923,-309.091 298.971,-303.647 307.813,-310.133 307.813,-310.133"/>
</g>
<!-- d -->
<g id="node9" class="node"><title>d</title>
<polygon fill="none" stroke="black" points="362,-277.997 314,-277.997 314,-241.997 368,-241.997 368,-271.997 362,-277.997"/>
<polyline fill="none" stroke="black" points="362,-277.997 362,-271.997 "/>
<polyline fill="none" stroke="black" points="368,-271.997 362,-271.997 "/>
<text text-anchor="middle" x="341" y="-263.397" font-family="Helvetica,sans-Serif" font-size="12.00">Build</text>
<text text-anchor="middle" x="341" y="-250.397" font-family="Helvetica,sans-Serif" font-size="12.00">Script</text>
</g>
<!-- b&#45;&gt;d -->
<g id="edge8" class="edge"><title>b&#45;&gt;d</title>
<path fill="none" stroke="black" d="M256.192,-277.251C272.105,-273.975 289.241,-270.447 303.846,-267.44"/>
<polygon fill="black" stroke="black" points="313.979,-265.354 305.092,-271.778 309.082,-266.362 304.184,-267.371 304.184,-267.371 304.184,-267.371 309.082,-266.362 303.277,-262.963 313.979,-265.354 313.979,-265.354"/>
</g>
<!-- g&#45;&gt;h -->
<g id="edge9" class="edge"><title>g&#45;&gt;h</title>
<path fill="none" stroke="black" d="M252.331,-205.228C266.093,-200.168 281.031,-194.677 294.611,-189.684"/>
<polygon fill="black" stroke="black" points="304.223,-186.15 296.39,-193.824 299.53,-187.875 294.837,-189.601 294.837,-189.601 294.837,-189.601 299.53,-187.875 293.285,-185.377 304.223,-186.15 304.223,-186.15"/>
</g>
<!-- i -->
<g id="node7" class="node"><title>i</title>
<polygon fill="none" stroke="black" points="524,-196.497 521,-200.497 500,-200.497 497,-196.497 426,-196.497 426,-149.497 524,-149.497 524,-196.497"/>
<text text-anchor="middle" x="475" y="-182.897" font-family="Helvetica,sans-Serif" font-size="12.00">library X</text>
<text text-anchor="middle" x="475" y="-169.897" font-family="Helvetica,sans-Serif" font-size="12.00">Documentation</text>
<text text-anchor="middle" x="475" y="-156.897" font-family="Helvetica,sans-Serif" font-size="12.00">html,pdf</text>
</g>
<!-- h&#45;&gt;i -->
<g id="edge10" class="edge"><title>h&#45;&gt;i</title>
<path fill="none" stroke="black" d="M377.721,-172.997C389.409,-172.997 402.714,-172.997 415.625,-172.997"/>
<polygon fill="black" stroke="black" points="425.856,-172.997 415.856,-177.497 420.856,-172.997 415.856,-172.997 415.856,-172.997 415.856,-172.997 420.856,-172.997 415.856,-168.497 425.856,-172.997 425.856,-172.997"/>
</g>
<!-- d5 -->
<g id="node19" class="node"><title>d5</title>
<polygon fill="none" stroke="black" points="658,-65.4969 655,-69.4969 634,-69.4969 631,-65.4969 560,-65.4969 560,-18.4969 658,-18.4969 658,-65.4969"/>
<text text-anchor="middle" x="609" y="-51.8969" font-family="Helvetica,sans-Serif" font-size="12.00">library X</text>
<text text-anchor="middle" x="609" y="-38.8969" font-family="Helvetica,sans-Serif" font-size="12.00">Documentation</text>
<text text-anchor="middle" x="609" y="-25.8969" font-family="Helvetica,sans-Serif" font-size="12.00">html,pdf</text>
</g>
<!-- i&#45;&gt;d5 -->
<g id="edge18" class="edge"><title>i&#45;&gt;d5</title>
<path fill="none" stroke="black" d="M507.361,-149.405C513.04,-144.79 518.804,-139.866 524,-134.997 544.698,-115.601 566.101,-91.8404 582.122,-73.191"/>
<polygon fill="black" stroke="black" points="588.641,-65.5389 585.581,-76.0694 585.398,-69.345 582.156,-73.1511 582.156,-73.1511 582.156,-73.1511 585.398,-69.345 578.73,-70.2329 588.641,-65.5389 588.641,-65.5389"/>
</g>
<!-- e -->
<g id="node10" class="node"><title>e</title>
<polygon fill="none" stroke="black" points="500,-308.997 444,-308.997 444,-272.997 506,-272.997 506,-302.997 500,-308.997"/>
<polyline fill="none" stroke="black" points="500,-308.997 500,-302.997 "/>
<polyline fill="none" stroke="black" points="506,-302.997 500,-302.997 "/>
<text text-anchor="middle" x="475" y="-294.397" font-family="Helvetica,sans-Serif" font-size="12.00">Scope</text>
<text text-anchor="middle" x="475" y="-281.397" font-family="Helvetica,sans-Serif" font-size="12.00">Makefile</text>
</g>
<!-- c&#45;&gt;e -->
<g id="edge1" class="edge"><title>c&#45;&gt;e</title>
<path fill="none" stroke="black" d="M374.291,-310.637C392.277,-307.094 414.828,-302.652 433.932,-298.889"/>
<polygon fill="black" stroke="black" points="443.852,-296.935 434.91,-303.283 438.947,-297.901 434.041,-298.868 434.041,-298.868 434.041,-298.868 438.947,-297.901 433.171,-294.453 443.852,-296.935 443.852,-296.935"/>
</g>
<!-- d&#45;&gt;e -->
<g id="edge2" class="edge"><title>d&#45;&gt;e</title>
<path fill="none" stroke="black" d="M368.079,-266.121C386.889,-270.539 412.629,-276.584 434.024,-281.609"/>
<polygon fill="black" stroke="black" points="443.817,-283.909 433.053,-286.003 438.95,-282.765 434.082,-281.622 434.082,-281.622 434.082,-281.622 438.95,-282.765 435.111,-277.241 443.817,-283.909 443.817,-283.909"/>
</g>
<!-- f1 -->
<g id="node11" class="node"><title>f1</title>
<polygon fill="none" stroke="black" points="642.5,-251.997 575.5,-251.997 575.5,-247.997 571.5,-247.997 571.5,-243.997 575.5,-243.997 575.5,-223.997 571.5,-223.997 571.5,-219.997 575.5,-219.997 575.5,-215.997 642.5,-215.997 642.5,-251.997"/>
<polyline fill="none" stroke="black" points="575.5,-247.997 579.5,-247.997 579.5,-243.997 575.5,-243.997 "/>
<polyline fill="none" stroke="black" points="575.5,-223.997 579.5,-223.997 579.5,-219.997 575.5,-219.997 "/>
<text text-anchor="middle" x="609" y="-230.897" font-family="Helvetica,sans-Serif" font-size="12.00">Targets 1</text>
</g>
<!-- e&#45;&gt;f1 -->
<g id="edge3" class="edge"><title>e&#45;&gt;f1</title>
<path fill="none" stroke="black" d="M506.283,-277.92C523.945,-270.294 546.488,-260.559 565.862,-252.193"/>
<polygon fill="black" stroke="black" points="575.083,-248.211 567.686,-256.307 570.493,-250.193 565.902,-252.175 565.902,-252.175 565.902,-252.175 570.493,-250.193 564.118,-248.044 575.083,-248.211 575.083,-248.211"/>
</g>
<!-- f2 -->
<g id="node12" class="node"><title>f2</title>
<polygon fill="none" stroke="black" points="642.5,-308.997 575.5,-308.997 575.5,-304.997 571.5,-304.997 571.5,-300.997 575.5,-300.997 575.5,-280.997 571.5,-280.997 571.5,-276.997 575.5,-276.997 575.5,-272.997 642.5,-272.997 642.5,-308.997"/>
<polyline fill="none" stroke="black" points="575.5,-304.997 579.5,-304.997 579.5,-300.997 575.5,-300.997 "/>
<polyline fill="none" stroke="black" points="575.5,-280.997 579.5,-280.997 579.5,-276.997 575.5,-276.997 "/>
<text text-anchor="middle" x="609" y="-287.897" font-family="Helvetica,sans-Serif" font-size="12.00">Targets 2</text>
</g>
<!-- e&#45;&gt;f2 -->
<g id="edge4" class="edge"><title>e&#45;&gt;f2</title>
<path fill="none" stroke="black" d="M506.283,-290.997C523.704,-290.997 545.874,-290.997 565.068,-290.997"/>
<polygon fill="black" stroke="black" points="575.083,-290.997 565.083,-295.497 570.083,-290.997 565.083,-290.997 565.083,-290.997 565.083,-290.997 570.083,-290.997 565.083,-286.497 575.083,-290.997 575.083,-290.997"/>
</g>
<!-- f3 -->
<g id="node13" class="node"><title>f3</title>
<text text-anchor="middle" x="609" y="-344.897" font-family="Helvetica,sans-Serif" font-size="12.00">...</text>
</g>
<!-- e&#45;&gt;f3 -->
<!-- fn -->
<g id="node14" class="node"><title>fn</title>
<polygon fill="none" stroke="black" points="642.5,-422.997 575.5,-422.997 575.5,-418.997 571.5,-418.997 571.5,-414.997 575.5,-414.997 575.5,-394.997 571.5,-394.997 571.5,-390.997 575.5,-390.997 575.5,-386.997 642.5,-386.997 642.5,-422.997"/>
<polyline fill="none" stroke="black" points="575.5,-418.997 579.5,-418.997 579.5,-414.997 575.5,-414.997 "/>
<polyline fill="none" stroke="black" points="575.5,-394.997 579.5,-394.997 579.5,-390.997 575.5,-390.997 "/>
<text text-anchor="middle" x="609" y="-401.897" font-family="Helvetica,sans-Serif" font-size="12.00">Targets n</text>
</g>
<!-- e&#45;&gt;fn -->
<g id="edge6" class="edge"><title>e&#45;&gt;fn</title>
<path fill="none" stroke="black" d="M491.987,-309.245C508.149,-327.123 534.338,-354.582 560,-374.997 562.696,-377.142 565.555,-379.262 568.48,-381.324"/>
<polygon fill="black" stroke="black" points="576.822,-386.953 566.015,-385.09 572.677,-384.156 568.533,-381.36 568.533,-381.36 568.533,-381.36 572.677,-384.156 571.05,-377.629 576.822,-386.953 576.822,-386.953"/>
</g>
<!-- d1 -->
<g id="node15" class="node"><title>d1</title>
<polygon fill="none" stroke="black" points="114,-65.4969 111,-69.4969 90,-69.4969 87,-65.4969 16,-65.4969 16,-18.4969 114,-18.4969 114,-65.4969"/>
<text text-anchor="middle" x="65" y="-51.8969" font-family="Helvetica,sans-Serif" font-size="12.00">library 1</text>
<text text-anchor="middle" x="65" y="-38.8969" font-family="Helvetica,sans-Serif" font-size="12.00">Documentation</text>
<text text-anchor="middle" x="65" y="-25.8969" font-family="Helvetica,sans-Serif" font-size="12.00">html,pdf</text>
</g>
<!-- d2 -->
<g id="node16" class="node"><title>d2</title>
<polygon fill="none" stroke="black" points="252,-65.4969 249,-69.4969 228,-69.4969 225,-65.4969 154,-65.4969 154,-18.4969 252,-18.4969 252,-65.4969"/>
<text text-anchor="middle" x="203" y="-51.8969" font-family="Helvetica,sans-Serif" font-size="12.00">library 2</text>
<text text-anchor="middle" x="203" y="-38.8969" font-family="Helvetica,sans-Serif" font-size="12.00">Documentation</text>
<text text-anchor="middle" x="203" y="-25.8969" font-family="Helvetica,sans-Serif" font-size="12.00">html,pdf</text>
</g>
<!-- d1&#45;&gt;d2 -->
<!-- d3 -->
<g id="node17" class="node"><title>d3</title>
<polygon fill="none" stroke="black" points="390,-65.4969 387,-69.4969 366,-69.4969 363,-65.4969 292,-65.4969 292,-18.4969 390,-18.4969 390,-65.4969"/>
<text text-anchor="middle" x="341" y="-51.8969" font-family="Helvetica,sans-Serif" font-size="12.00">library 3</text>
<text text-anchor="middle" x="341" y="-38.8969" font-family="Helvetica,sans-Serif" font-size="12.00">Documentation</text>
<text text-anchor="middle" x="341" y="-25.8969" font-family="Helvetica,sans-Serif" font-size="12.00">html,pdf</text>
</g>
<!-- d2&#45;&gt;d3 -->
<!-- d4 -->
<g id="node18" class="node"><title>d4</title>
<text text-anchor="middle" x="475" y="-38.8969" font-family="Helvetica,sans-Serif" font-size="12.00">...</text>
</g>
<!-- d3&#45;&gt;d4 -->
<!-- d4&#45;&gt;d5 -->
</g>
</svg>
