<?xml version="1.0" encoding="UTF-8" standalone="no"?>
<!DOCTYPE svg PUBLIC "-//W3C//DTD SVG 1.1//EN"
 "http://www.w3.org/Graphics/SVG/1.1/DTD/svg11.dtd">
<!-- Generated by graphviz version 2.38.0 (20140413.2041)
 -->
<!-- Title: example Pages: 1 -->
<svg width="323pt" height="108pt"
 viewBox="0.00 0.00 322.51 108.00" xmlns="http://www.w3.org/2000/svg" xmlns:xlink="http://www.w3.org/1999/xlink">
<g id="graph0" class="graph" transform="scale(1 1) rotate(0) translate(4 104)">
<title>example</title>
<polygon fill="white" stroke="none" points="-4,4 -4,-104 318.51,-104 318.51,4 -4,4"/>
<!-- a -->
<g id="node1" class="node"><title>a</title>
<g id="a_node1"><a xlink:href="\ref vehicle.scad" xlink:title="Annotated\nSource\n(*.scad)">
<polygon fill="none" stroke="black" points="55,-70 -3.55271e-15,-70 -3.55271e-15,-29 61,-29 61,-64 55,-70"/>
<polyline fill="none" stroke="black" points="55,-70 55,-64 "/>
<polyline fill="none" stroke="black" points="61,-64 55,-64 "/>
<text text-anchor="middle" x="30.5" y="-58" font-family="Helvetica,sans-Serif" font-size="10.00">Annotated</text>
<text text-anchor="middle" x="30.5" y="-47" font-family="Helvetica,sans-Serif" font-size="10.00">Source</text>
<text text-anchor="middle" x="30.5" y="-36" font-family="Helvetica,sans-Serif" font-size="10.00">(*.scad)</text>
</a>
</g>
</g>
<!-- b -->
<g id="node2" class="node"><title>b</title>
<g id="a_node2"><a xlink:href="\ref design_flow" xlink:title="Automated\nDesign\nFlow">
<ellipse fill="none" stroke="black" cx="146.255" cy="-49.5" rx="45.0307" ry="28.9838"/>
<ellipse fill="none" stroke="black" cx="146.255" cy="-49.5" rx="49.0109" ry="32.9828"/>
<text text-anchor="middle" x="146.255" y="-58" font-family="Helvetica,sans-Serif" font-size="10.00">Automated</text>
<text text-anchor="middle" x="146.255" y="-47" font-family="Helvetica,sans-Serif" font-size="10.00">Design</text>
<text text-anchor="middle" x="146.255" y="-36" font-family="Helvetica,sans-Serif" font-size="10.00">Flow</text>
</a>
</g>
</g>
<!-- a&#45;&gt;b -->
<g id="edge1" class="edge"><title>a&#45;&gt;b</title>
<path fill="none" stroke="black" d="M61.0908,-49.5C69.0305,-49.5 77.8999,-49.5 86.8205,-49.5"/>
<polygon fill="black" stroke="black" points="96.8669,-49.5 86.867,-54.0001 91.8669,-49.5 86.8669,-49.5001 86.8669,-49.5001 86.8669,-49.5001 91.8669,-49.5 86.8669,-45.0001 96.8669,-49.5 96.8669,-49.5"/>
</g>
<!-- c -->
<g id="node3" class="node"><title>c</title>
<g id="a_node3"><a xlink:href="../../../examples/build/html/vehicle_test_car_17.stl" xlink:title="Target (1)\n...\nTarget (n)">
<polygon fill="none" stroke="black" points="302.51,-100 243.51,-100 243.51,-96 239.51,-96 239.51,-92 243.51,-92 243.51,-67 239.51,-67 239.51,-63 243.51,-63 243.51,-59 302.51,-59 302.51,-100"/>
<polyline fill="none" stroke="black" points="243.51,-96 247.51,-96 247.51,-92 243.51,-92 "/>
<polyline fill="none" stroke="black" points="243.51,-67 247.51,-67 247.51,-63 243.51,-63 "/>
<text text-anchor="middle" x="273.01" y="-88" font-family="Helvetica,sans-Serif" font-size="10.00">Target (1)</text>
<text text-anchor="middle" x="273.01" y="-77" font-family="Helvetica,sans-Serif" font-size="10.00">...</text>
<text text-anchor="middle" x="273.01" y="-66" font-family="Helvetica,sans-Serif" font-size="10.00">Target (n)</text>
</a>
</g>
</g>
<!-- b&#45;&gt;c -->
<g id="edge2" class="edge"><title>b&#45;&gt;c</title>
<path fill="none" stroke="black" d="M193.001,-60.5005C206.28,-63.6938 220.643,-67.1479 233.436,-70.2241"/>
<polygon fill="black" stroke="black" points="243.308,-72.598 232.533,-74.6351 238.446,-71.4289 233.585,-70.2598 233.585,-70.2598 233.585,-70.2598 238.446,-71.4289 234.637,-65.8846 243.308,-72.598 243.308,-72.598"/>
</g>
<!-- d -->
<g id="node4" class="node"><title>d</title>
<g id="a_node4"><a xlink:href="../../../examples/build/html/index.html" xlink:title="Design\nLibrary\nDocumentation">
<polygon fill="none" stroke="black" points="314.51,-41 311.51,-45 290.51,-45 287.51,-41 231.51,-41 231.51,-0 314.51,-0 314.51,-41"/>
<text text-anchor="middle" x="273.01" y="-29" font-family="Helvetica,sans-Serif" font-size="10.00">Design</text>
<text text-anchor="middle" x="273.01" y="-18" font-family="Helvetica,sans-Serif" font-size="10.00">Library</text>
<text text-anchor="middle" x="273.01" y="-7" font-family="Helvetica,sans-Serif" font-size="10.00">Documentation</text>
</a>
</g>
</g>
<!-- b&#45;&gt;d -->
<g id="edge3" class="edge"><title>b&#45;&gt;d</title>
<path fill="none" stroke="black" d="M193.001,-38.8661C202.193,-36.7293 211.905,-34.4716 221.256,-32.2979"/>
<polygon fill="black" stroke="black" points="231.22,-29.9819 222.498,-36.6293 226.349,-31.114 221.479,-32.2462 221.479,-32.2462 221.479,-32.2462 226.349,-31.114 220.46,-27.863 231.22,-29.9819 231.22,-29.9819"/>
</g>
</g>
</svg>
