<?xml version="1.0" encoding="UTF-8" standalone="no"?>
<!DOCTYPE svg PUBLIC "-//W3C//DTD SVG 1.1//EN"
 "http://www.w3.org/Graphics/SVG/1.1/DTD/svg11.dtd">
<!-- Generated by graphviz version 2.38.0 (20140413.2041)
 -->
<!-- Title: example Pages: 1 -->
<svg width="574pt" height="432pt"
 viewBox="0.00 0.00 573.76 432.00" xmlns="http://www.w3.org/2000/svg" xmlns:xlink="http://www.w3.org/1999/xlink">
<g id="graph0" class="graph" transform="scale(0.840058 0.840058) rotate(0) translate(4 510.25)">
<title>example</title>
<polygon fill="white" stroke="none" points="-4,4 -4,-510.25 679,-510.25 679,4 -4,4"/>
<g id="clust1" class="cluster"><title>cluster_template</title>
<polygon fill="none" stroke="black" stroke-dasharray="1,5" points="15,-142.68 15,-356.172 115,-356.172 115,-142.68 15,-142.68"/>
<text text-anchor="middle" x="65" y="-336.172" font-family="Helvetica,sans-Serif" font-size="20.00" fill="gray">Template</text>
</g>
<g id="clust3" class="cluster"><title>cluster_flow</title>
<polygon fill="none" stroke="black" stroke-dasharray="1,5" points="143,-139.509 143,-497.795 659.5,-497.795 659.5,-139.509 143,-139.509"/>
<text text-anchor="middle" x="401.25" y="-477.795" font-family="Helvetica,sans-Serif" font-size="20.00" fill="gray">Automated Design Flow</text>
</g>
<g id="clust4" class="cluster"><title>cluster_scope</title>
<polygon fill="none" stroke="black" stroke-dasharray="5,2" points="301,-207.15 301,-457.633 651.5,-457.633 651.5,-207.15 301,-207.15"/>
<text text-anchor="middle" x="476.25" y="-442.433" font-family="Helvetica,sans-Serif" font-size="14.00" fill="gray">Source Scope</text>
</g>
<g id="clust6" class="cluster"><title>cluster_docrepo</title>
<polygon fill="none" stroke="black" stroke-dasharray="1,5" points="8,-8.45511 8,-131.054 667,-131.054 667,-8.45511 8,-8.45511"/>
<text text-anchor="middle" x="337.5" y="-111.054" font-family="Helvetica,sans-Serif" font-size="20.00" fill="gray">OpenSCAD Library</text>
<text text-anchor="middle" x="337.5" y="-89.0543" font-family="Helvetica,sans-Serif" font-size="20.00" fill="gray">Documentation Repository</text>
</g>
<!-- a1 -->
<g id="node1" class="node"><title>a1</title>
<polygon fill="none" stroke="black" points="90,-315.393 34,-315.393 34,-279.393 96,-279.393 96,-309.393 90,-315.393"/>
<polyline fill="none" stroke="black" points="90,-315.393 90,-309.393 "/>
<polyline fill="none" stroke="black" points="96,-309.393 90,-309.393 "/>
<text text-anchor="middle" x="65" y="-300.793" font-family="Helvetica,sans-Serif" font-size="12.00">Project</text>
<text text-anchor="middle" x="65" y="-287.793" font-family="Helvetica,sans-Serif" font-size="12.00">Makefile</text>
</g>
<!-- a2 -->
<g id="node2" class="node"><title>a2</title>
<polygon fill="none" stroke="black" points="87.5,-256.893 36.5,-256.893 36.5,-209.893 93.5,-209.893 93.5,-250.893 87.5,-256.893"/>
<polyline fill="none" stroke="black" points="87.5,-256.893 87.5,-250.893 "/>
<polyline fill="none" stroke="black" points="93.5,-250.893 87.5,-250.893 "/>
<text text-anchor="middle" x="65" y="-243.293" font-family="Helvetica,sans-Serif" font-size="12.00">Source</text>
<text text-anchor="middle" x="65" y="-230.293" font-family="Helvetica,sans-Serif" font-size="12.00">Files</text>
<text text-anchor="middle" x="65" y="-217.293" font-family="Helvetica,sans-Serif" font-size="12.00">(*.scad)</text>
</g>
<!-- b -->
<g id="node4" class="node"><title>b</title>
<polygon fill="none" stroke="black" points="253,-306.393 155,-306.393 155,-270.393 253,-270.393 253,-306.393"/>
<polygon fill="none" stroke="black" points="257,-310.393 151,-310.393 151,-266.393 257,-266.393 257,-310.393"/>
<text text-anchor="middle" x="204" y="-285.293" font-family="Helvetica,sans-Serif" font-size="12.00">Script Extractor</text>
</g>
<!-- a2&#45;&gt;b -->
<g id="edge15" class="edge"><title>a2&#45;&gt;b</title>
<path fill="none" stroke="black" d="M93.724,-244.523C107.449,-250.033 124.609,-256.922 141.234,-263.597"/>
<polygon fill="black" stroke="black" points="150.931,-267.49 139.975,-267.94 146.291,-265.627 141.651,-263.764 141.651,-263.764 141.651,-263.764 146.291,-265.627 143.328,-259.588 150.931,-267.49 150.931,-267.49"/>
</g>
<!-- g -->
<g id="node5" class="node"><title>g</title>
<polygon fill="none" stroke="black" points="249,-241.393 159,-241.393 159,-205.393 249,-205.393 249,-241.393"/>
<polygon fill="none" stroke="black" points="253,-245.393 155,-245.393 155,-201.393 253,-201.393 253,-245.393"/>
<text text-anchor="middle" x="204" y="-220.293" font-family="Helvetica,sans-Serif" font-size="12.00">Doxygen filter</text>
</g>
<!-- a2&#45;&gt;g -->
<g id="edge16" class="edge"><title>a2&#45;&gt;g</title>
<path fill="none" stroke="black" d="M93.724,-231.369C108.365,-230.301 126.912,-228.947 144.551,-227.659"/>
<polygon fill="black" stroke="black" points="154.795,-226.912 145.149,-232.128 149.809,-227.276 144.822,-227.64 144.822,-227.64 144.822,-227.64 149.809,-227.276 144.494,-223.152 154.795,-226.912 154.795,-226.912"/>
</g>
<!-- a3 -->
<g id="node3" class="node"><title>a3</title>
<polygon fill="none" stroke="black" points="89,-188.393 35,-188.393 35,-152.393 95,-152.393 95,-182.393 89,-188.393"/>
<polyline fill="none" stroke="black" points="89,-188.393 89,-182.393 "/>
<polyline fill="none" stroke="black" points="95,-182.393 89,-182.393 "/>
<text text-anchor="middle" x="65" y="-167.293" font-family="Helvetica,sans-Serif" font-size="12.00">Doxyfile</text>
</g>
<!-- h -->
<g id="node6" class="node"><title>h</title>
<polygon fill="none" stroke="black" points="374.5,-191.393 309.5,-191.393 309.5,-155.393 374.5,-155.393 374.5,-191.393"/>
<polygon fill="none" stroke="black" points="378.5,-195.393 305.5,-195.393 305.5,-151.393 378.5,-151.393 378.5,-195.393"/>
<text text-anchor="middle" x="342" y="-170.293" font-family="Helvetica,sans-Serif" font-size="12.00">Doxygen</text>
</g>
<!-- a3&#45;&gt;h -->
<g id="edge17" class="edge"><title>a3&#45;&gt;h</title>
<path fill="none" stroke="black" d="M95.1695,-170.711C142.928,-171.232 238.171,-172.271 295.067,-172.892"/>
<polygon fill="black" stroke="black" points="305.224,-173.003 295.176,-177.393 300.225,-172.948 295.225,-172.894 295.225,-172.894 295.225,-172.894 300.225,-172.948 295.274,-168.394 305.224,-173.003 305.224,-173.003"/>
</g>
<!-- c -->
<g id="node8" class="node"><title>c</title>
<polygon fill="none" stroke="black" points="369,-335.393 309,-335.393 309,-299.393 375,-299.393 375,-329.393 369,-335.393"/>
<polyline fill="none" stroke="black" points="369,-335.393 369,-329.393 "/>
<polyline fill="none" stroke="black" points="375,-329.393 369,-329.393 "/>
<text text-anchor="middle" x="342" y="-320.793" font-family="Helvetica,sans-Serif" font-size="12.00">Modeling</text>
<text text-anchor="middle" x="342" y="-307.793" font-family="Helvetica,sans-Serif" font-size="12.00">Script</text>
</g>
<!-- b&#45;&gt;c -->
<g id="edge7" class="edge"><title>b&#45;&gt;c</title>
<path fill="none" stroke="black" d="M257.192,-299.522C270.905,-302.446 285.526,-305.564 298.652,-308.363"/>
<polygon fill="black" stroke="black" points="308.813,-310.53 298.094,-312.845 303.923,-309.487 299.033,-308.444 299.033,-308.444 299.033,-308.444 303.923,-309.487 299.971,-304.043 308.813,-310.53 308.813,-310.53"/>
</g>
<!-- d -->
<g id="node9" class="node"><title>d</title>
<polygon fill="none" stroke="black" points="363,-278.393 315,-278.393 315,-242.393 369,-242.393 369,-272.393 363,-278.393"/>
<polyline fill="none" stroke="black" points="363,-278.393 363,-272.393 "/>
<polyline fill="none" stroke="black" points="369,-272.393 363,-272.393 "/>
<text text-anchor="middle" x="342" y="-263.793" font-family="Helvetica,sans-Serif" font-size="12.00">Build</text>
<text text-anchor="middle" x="342" y="-250.793" font-family="Helvetica,sans-Serif" font-size="12.00">Script</text>
</g>
<!-- b&#45;&gt;d -->
<g id="edge8" class="edge"><title>b&#45;&gt;d</title>
<path fill="none" stroke="black" d="M257.192,-277.648C273.105,-274.371 290.241,-270.843 304.846,-267.837"/>
<polygon fill="black" stroke="black" points="314.979,-265.75 306.092,-272.174 310.082,-266.759 305.184,-267.767 305.184,-267.767 305.184,-267.767 310.082,-266.759 304.277,-263.359 314.979,-265.75 314.979,-265.75"/>
</g>
<!-- g&#45;&gt;h -->
<g id="edge9" class="edge"><title>g&#45;&gt;h</title>
<path fill="none" stroke="black" d="M253.331,-205.624C267.093,-200.565 282.031,-195.073 295.611,-190.08"/>
<polygon fill="black" stroke="black" points="305.223,-186.546 297.39,-194.221 300.53,-188.272 295.837,-189.997 295.837,-189.997 295.837,-189.997 300.53,-188.272 294.285,-185.773 305.223,-186.546 305.223,-186.546"/>
</g>
<!-- i -->
<g id="node7" class="node"><title>i</title>
<polygon fill="none" stroke="black" points="525,-196.893 522,-200.893 501,-200.893 498,-196.893 427,-196.893 427,-149.893 525,-149.893 525,-196.893"/>
<text text-anchor="middle" x="476" y="-183.293" font-family="Helvetica,sans-Serif" font-size="12.00">library X</text>
<text text-anchor="middle" x="476" y="-170.293" font-family="Helvetica,sans-Serif" font-size="12.00">Documentation</text>
<text text-anchor="middle" x="476" y="-157.293" font-family="Helvetica,sans-Serif" font-size="12.00">html,pdf</text>
</g>
<!-- h&#45;&gt;i -->
<g id="edge10" class="edge"><title>h&#45;&gt;i</title>
<path fill="none" stroke="black" d="M378.721,-173.393C390.409,-173.393 403.714,-173.393 416.625,-173.393"/>
<polygon fill="black" stroke="black" points="426.856,-173.393 416.856,-177.893 421.856,-173.393 416.856,-173.393 416.856,-173.393 416.856,-173.393 421.856,-173.393 416.856,-168.893 426.856,-173.393 426.856,-173.393"/>
</g>
<!-- d5 -->
<g id="node19" class="node"><title>d5</title>
<polygon fill="none" stroke="black" points="659,-65.893 656,-69.893 635,-69.893 632,-65.893 561,-65.893 561,-18.893 659,-18.893 659,-65.893"/>
<text text-anchor="middle" x="610" y="-52.293" font-family="Helvetica,sans-Serif" font-size="12.00">library X</text>
<text text-anchor="middle" x="610" y="-39.293" font-family="Helvetica,sans-Serif" font-size="12.00">Documentation</text>
<text text-anchor="middle" x="610" y="-26.293" font-family="Helvetica,sans-Serif" font-size="12.00">html,pdf</text>
</g>
<!-- i&#45;&gt;d5 -->
<g id="edge18" class="edge"><title>i&#45;&gt;d5</title>
<path fill="none" stroke="black" d="M508.361,-149.801C514.04,-145.186 519.804,-140.262 525,-135.393 545.698,-115.997 567.101,-92.2365 583.122,-73.5871"/>
<polygon fill="black" stroke="black" points="589.641,-65.9351 586.581,-76.4655 586.398,-69.7412 583.156,-73.5473 583.156,-73.5473 583.156,-73.5473 586.398,-69.7412 579.73,-70.629 589.641,-65.9351 589.641,-65.9351"/>
</g>
<!-- e -->
<g id="node10" class="node"><title>e</title>
<polygon fill="none" stroke="black" points="501,-309.393 445,-309.393 445,-273.393 507,-273.393 507,-303.393 501,-309.393"/>
<polyline fill="none" stroke="black" points="501,-309.393 501,-303.393 "/>
<polyline fill="none" stroke="black" points="507,-303.393 501,-303.393 "/>
<text text-anchor="middle" x="476" y="-294.793" font-family="Helvetica,sans-Serif" font-size="12.00">Scope</text>
<text text-anchor="middle" x="476" y="-281.793" font-family="Helvetica,sans-Serif" font-size="12.00">Makefile</text>
</g>
<!-- c&#45;&gt;e -->
<g id="edge1" class="edge"><title>c&#45;&gt;e</title>
<path fill="none" stroke="black" d="M375.291,-311.033C393.277,-307.49 415.828,-303.048 434.932,-299.285"/>
<polygon fill="black" stroke="black" points="444.852,-297.331 435.91,-303.679 439.947,-298.298 435.041,-299.264 435.041,-299.264 435.041,-299.264 439.947,-298.298 434.171,-294.849 444.852,-297.331 444.852,-297.331"/>
</g>
<!-- d&#45;&gt;e -->
<g id="edge2" class="edge"><title>d&#45;&gt;e</title>
<path fill="none" stroke="black" d="M369.079,-266.518C387.889,-270.935 413.629,-276.98 435.024,-282.005"/>
<polygon fill="black" stroke="black" points="444.817,-284.305 434.053,-286.399 439.95,-283.161 435.082,-282.018 435.082,-282.018 435.082,-282.018 439.95,-283.161 436.111,-277.637 444.817,-284.305 444.817,-284.305"/>
</g>
<!-- f1 -->
<g id="node11" class="node"><title>f1</title>
<polygon fill="none" stroke="black" points="643.5,-252.393 576.5,-252.393 576.5,-248.393 572.5,-248.393 572.5,-244.393 576.5,-244.393 576.5,-224.393 572.5,-224.393 572.5,-220.393 576.5,-220.393 576.5,-216.393 643.5,-216.393 643.5,-252.393"/>
<polyline fill="none" stroke="black" points="576.5,-248.393 580.5,-248.393 580.5,-244.393 576.5,-244.393 "/>
<polyline fill="none" stroke="black" points="576.5,-224.393 580.5,-224.393 580.5,-220.393 576.5,-220.393 "/>
<text text-anchor="middle" x="610" y="-231.293" font-family="Helvetica,sans-Serif" font-size="12.00">Targets 1</text>
</g>
<!-- e&#45;&gt;f1 -->
<g id="edge3" class="edge"><title>e&#45;&gt;f1</title>
<path fill="none" stroke="black" d="M507.283,-278.316C524.945,-270.69 547.488,-260.955 566.862,-252.589"/>
<polygon fill="black" stroke="black" points="576.083,-248.607 568.686,-256.703 571.493,-250.589 566.902,-252.572 566.902,-252.572 566.902,-252.572 571.493,-250.589 565.118,-248.44 576.083,-248.607 576.083,-248.607"/>
</g>
<!-- f2 -->
<g id="node12" class="node"><title>f2</title>
<polygon fill="none" stroke="black" points="643.5,-309.393 576.5,-309.393 576.5,-305.393 572.5,-305.393 572.5,-301.393 576.5,-301.393 576.5,-281.393 572.5,-281.393 572.5,-277.393 576.5,-277.393 576.5,-273.393 643.5,-273.393 643.5,-309.393"/>
<polyline fill="none" stroke="black" points="576.5,-305.393 580.5,-305.393 580.5,-301.393 576.5,-301.393 "/>
<polyline fill="none" stroke="black" points="576.5,-281.393 580.5,-281.393 580.5,-277.393 576.5,-277.393 "/>
<text text-anchor="middle" x="610" y="-288.293" font-family="Helvetica,sans-Serif" font-size="12.00">Targets 2</text>
</g>
<!-- e&#45;&gt;f2 -->
<g id="edge4" class="edge"><title>e&#45;&gt;f2</title>
<path fill="none" stroke="black" d="M507.283,-291.393C524.704,-291.393 546.874,-291.393 566.068,-291.393"/>
<polygon fill="black" stroke="black" points="576.083,-291.393 566.083,-295.893 571.083,-291.393 566.083,-291.393 566.083,-291.393 566.083,-291.393 571.083,-291.393 566.083,-286.893 576.083,-291.393 576.083,-291.393"/>
</g>
<!-- f3 -->
<g id="node13" class="node"><title>f3</title>
<text text-anchor="middle" x="610" y="-345.293" font-family="Helvetica,sans-Serif" font-size="12.00">...</text>
</g>
<!-- e&#45;&gt;f3 -->
<!-- fn -->
<g id="node14" class="node"><title>fn</title>
<polygon fill="none" stroke="black" points="643.5,-423.393 576.5,-423.393 576.5,-419.393 572.5,-419.393 572.5,-415.393 576.5,-415.393 576.5,-395.393 572.5,-395.393 572.5,-391.393 576.5,-391.393 576.5,-387.393 643.5,-387.393 643.5,-423.393"/>
<polyline fill="none" stroke="black" points="576.5,-419.393 580.5,-419.393 580.5,-415.393 576.5,-415.393 "/>
<polyline fill="none" stroke="black" points="576.5,-395.393 580.5,-395.393 580.5,-391.393 576.5,-391.393 "/>
<text text-anchor="middle" x="610" y="-402.293" font-family="Helvetica,sans-Serif" font-size="12.00">Targets n</text>
</g>
<!-- e&#45;&gt;fn -->
<g id="edge6" class="edge"><title>e&#45;&gt;fn</title>
<path fill="none" stroke="black" d="M492.987,-309.641C509.149,-327.519 535.338,-354.978 561,-375.393 563.696,-377.538 566.555,-379.658 569.48,-381.72"/>
<polygon fill="black" stroke="black" points="577.822,-387.349 567.015,-385.486 573.677,-384.553 569.533,-381.756 569.533,-381.756 569.533,-381.756 573.677,-384.553 572.05,-378.026 577.822,-387.349 577.822,-387.349"/>
</g>
<!-- d1 -->
<g id="node15" class="node"><title>d1</title>
<polygon fill="none" stroke="black" points="114,-65.893 111,-69.893 90,-69.893 87,-65.893 16,-65.893 16,-18.893 114,-18.893 114,-65.893"/>
<text text-anchor="middle" x="65" y="-52.293" font-family="Helvetica,sans-Serif" font-size="12.00">library 1</text>
<text text-anchor="middle" x="65" y="-39.293" font-family="Helvetica,sans-Serif" font-size="12.00">Documentation</text>
<text text-anchor="middle" x="65" y="-26.293" font-family="Helvetica,sans-Serif" font-size="12.00">html,pdf</text>
</g>
<!-- d2 -->
<g id="node16" class="node"><title>d2</title>
<polygon fill="none" stroke="black" points="253,-65.893 250,-69.893 229,-69.893 226,-65.893 155,-65.893 155,-18.893 253,-18.893 253,-65.893"/>
<text text-anchor="middle" x="204" y="-52.293" font-family="Helvetica,sans-Serif" font-size="12.00">library 2</text>
<text text-anchor="middle" x="204" y="-39.293" font-family="Helvetica,sans-Serif" font-size="12.00">Documentation</text>
<text text-anchor="middle" x="204" y="-26.293" font-family="Helvetica,sans-Serif" font-size="12.00">html,pdf</text>
</g>
<!-- d1&#45;&gt;d2 -->
<!-- d3 -->
<g id="node17" class="node"><title>d3</title>
<polygon fill="none" stroke="black" points="391,-65.893 388,-69.893 367,-69.893 364,-65.893 293,-65.893 293,-18.893 391,-18.893 391,-65.893"/>
<text text-anchor="middle" x="342" y="-52.293" font-family="Helvetica,sans-Serif" font-size="12.00">library 3</text>
<text text-anchor="middle" x="342" y="-39.293" font-family="Helvetica,sans-Serif" font-size="12.00">Documentation</text>
<text text-anchor="middle" x="342" y="-26.293" font-family="Helvetica,sans-Serif" font-size="12.00">html,pdf</text>
</g>
<!-- d2&#45;&gt;d3 -->
<!-- d4 -->
<g id="node18" class="node"><title>d4</title>
<text text-anchor="middle" x="476" y="-39.293" font-family="Helvetica,sans-Serif" font-size="12.00">...</text>
</g>
<!-- d3&#45;&gt;d4 -->
<!-- d4&#45;&gt;d5 -->
</g>
</svg>
