<?xml version="1.0" encoding="UTF-8" standalone="no"?>
<!DOCTYPE svg PUBLIC "-//W3C//DTD SVG 1.1//EN"
 "http://www.w3.org/Graphics/SVG/1.1/DTD/svg11.dtd">
<!-- Generated by graphviz version 2.38.0 (20140413.2041)
 -->
<!-- Title: example Pages: 1 -->
<svg width="318pt" height="108pt"
 viewBox="0.00 0.00 318.27 108.00" xmlns="http://www.w3.org/2000/svg" xmlns:xlink="http://www.w3.org/1999/xlink">
<g id="graph0" class="graph" transform="scale(1 1) rotate(0) translate(4 104)">
<title>example</title>
<polygon fill="white" stroke="none" points="-4,4 -4,-104 314.267,-104 314.267,4 -4,4"/>
<!-- a -->
<g id="node1" class="node"><title>a</title>
<g id="a_node1"><a xlink:href="\ref vehicle.scad" xlink:title="Annotated\nSource\n(*.scad)">
<polygon fill="none" stroke="black" points="55,-70 -3.55271e-15,-70 -3.55271e-15,-29 61,-29 61,-64 55,-70"/>
<polyline fill="none" stroke="black" points="55,-70 55,-64 "/>
<polyline fill="none" stroke="black" points="61,-64 55,-64 "/>
<text text-anchor="middle" x="30.5" y="-58" font-family="Helvetica,sans-Serif" font-size="10.00">Annotated</text>
<text text-anchor="middle" x="30.5" y="-47" font-family="Helvetica,sans-Serif" font-size="10.00">Source</text>
<text text-anchor="middle" x="30.5" y="-36" font-family="Helvetica,sans-Serif" font-size="10.00">(*.scad)</text>
</a>
</g>
</g>
<!-- b -->
<g id="node2" class="node"><title>b</title>
<g id="a_node2"><a xlink:href="\ref design_flow" xlink:title="Automatic\nDesign\nFlow">
<ellipse fill="none" stroke="black" cx="144.134" cy="-49.5" rx="43.256" ry="28.9838"/>
<ellipse fill="none" stroke="black" cx="144.134" cy="-49.5" rx="47.2674" ry="32.9828"/>
<text text-anchor="middle" x="144.134" y="-58" font-family="Helvetica,sans-Serif" font-size="10.00">Automatic</text>
<text text-anchor="middle" x="144.134" y="-47" font-family="Helvetica,sans-Serif" font-size="10.00">Design</text>
<text text-anchor="middle" x="144.134" y="-36" font-family="Helvetica,sans-Serif" font-size="10.00">Flow</text>
</a>
</g>
</g>
<!-- a&#45;&gt;b -->
<g id="edge1" class="edge"><title>a&#45;&gt;b</title>
<path fill="none" stroke="black" d="M61.1226,-49.5C69.101,-49.5 78.0027,-49.5 86.918,-49.5"/>
<polygon fill="black" stroke="black" points="96.941,-49.5 86.941,-54.0001 91.941,-49.5 86.941,-49.5001 86.941,-49.5001 86.941,-49.5001 91.941,-49.5 86.9409,-45.0001 96.941,-49.5 96.941,-49.5"/>
</g>
<!-- c -->
<g id="node3" class="node"><title>c</title>
<g id="a_node3"><a xlink:href="../../../examples/build/html/vehicle_test_car_17.stl" xlink:title="Target (1)\n...\nTarget (n)">
<polygon fill="none" stroke="black" points="298.267,-100 239.267,-100 239.267,-96 235.267,-96 235.267,-92 239.267,-92 239.267,-67 235.267,-67 235.267,-63 239.267,-63 239.267,-59 298.267,-59 298.267,-100"/>
<polyline fill="none" stroke="black" points="239.267,-96 243.267,-96 243.267,-92 239.267,-92 "/>
<polyline fill="none" stroke="black" points="239.267,-67 243.267,-67 243.267,-63 239.267,-63 "/>
<text text-anchor="middle" x="268.767" y="-88" font-family="Helvetica,sans-Serif" font-size="10.00">Target (1)</text>
<text text-anchor="middle" x="268.767" y="-77" font-family="Helvetica,sans-Serif" font-size="10.00">...</text>
<text text-anchor="middle" x="268.767" y="-66" font-family="Helvetica,sans-Serif" font-size="10.00">Target (n)</text>
</a>
</g>
</g>
<!-- b&#45;&gt;c -->
<g id="edge2" class="edge"><title>b&#45;&gt;c</title>
<path fill="none" stroke="black" d="M189.061,-60.246C202.184,-63.4564 216.467,-66.9503 229.218,-70.0697"/>
<polygon fill="black" stroke="black" points="239.065,-72.4785 228.282,-74.4733 234.208,-71.2903 229.351,-70.1021 229.351,-70.1021 229.351,-70.1021 234.208,-71.2903 230.42,-65.731 239.065,-72.4785 239.065,-72.4785"/>
</g>
<!-- d -->
<g id="node4" class="node"><title>d</title>
<g id="a_node4"><a xlink:href="../../../examples/build/html/index.html" xlink:title="Design\nLibrary\nDocumentation">
<polygon fill="none" stroke="black" points="310.267,-41 307.267,-45 286.267,-45 283.267,-41 227.267,-41 227.267,-0 310.267,-0 310.267,-41"/>
<text text-anchor="middle" x="268.767" y="-29" font-family="Helvetica,sans-Serif" font-size="10.00">Design</text>
<text text-anchor="middle" x="268.767" y="-18" font-family="Helvetica,sans-Serif" font-size="10.00">Library</text>
<text text-anchor="middle" x="268.767" y="-7" font-family="Helvetica,sans-Serif" font-size="10.00">Documentation</text>
</a>
</g>
</g>
<!-- b&#45;&gt;d -->
<g id="edge3" class="edge"><title>b&#45;&gt;d</title>
<path fill="none" stroke="black" d="M189.061,-39.1122C198.146,-36.9639 207.786,-34.6842 217.089,-32.4843"/>
<polygon fill="black" stroke="black" points="227.009,-30.1383 218.313,-36.8189 222.143,-31.289 217.277,-32.4397 217.277,-32.4397 217.277,-32.4397 222.143,-31.289 216.242,-28.0605 227.009,-30.1383 227.009,-30.1383"/>
</g>
</g>
</svg>
